<svg xmlns="http://www.w3.org/2000/svg" width="900" height="600" viewBox="0 0 900 600">
  <rect width="900" height="600" fill="#f3f7fa"/>
  <circle cx="80" cy="60" r="35" fill="#1fa7b8" opacity="0.11"/><circle cx="80" cy="60" r="19" fill="none" stroke="#1fa7b8" stroke-opacity=".18" stroke-width="3"/><circle cx="573" cy="273" r="32" fill="#0f4c81" opacity="0.14"/><circle cx="573" cy="273" r="17" fill="none" stroke="#0f4c81" stroke-opacity=".18" stroke-width="3"/><circle cx="574" cy="84" r="34" fill="#0f4c81" opacity="0.06"/><circle cx="574" cy="84" r="19" fill="none" stroke="#0f4c81" stroke-opacity=".18" stroke-width="3"/><circle cx="238" cy="441" r="140" fill="#1fa7b8" opacity="0.14"/><circle cx="238" cy="441" r="77" fill="none" stroke="#1fa7b8" stroke-opacity=".18" stroke-width="3"/><circle cx="287" cy="3" r="49" fill="#0f4c81" opacity="0.08"/><circle cx="287" cy="3" r="27" fill="none" stroke="#0f4c81" stroke-opacity=".18" stroke-width="3"/><circle cx="411" cy="474" r="119" fill="#0f4c81" opacity="0.14"/><circle cx="411" cy="474" r="66" fill="none" stroke="#0f4c81" stroke-opacity=".18" stroke-width="3"/><circle cx="64" cy="334" r="69" fill="#1fa7b8" opacity="0.10"/><circle cx="64" cy="334" r="38" fill="none" stroke="#1fa7b8" stroke-opacity=".18" stroke-width="3"/><circle cx="768" cy="377" r="62" fill="#0f4c81" opacity="0.07"/><circle cx="768" cy="377" r="34" fill="none" stroke="#0f4c81" stroke-opacity=".18" stroke-width="3"/><circle cx="14" cy="40" r="115" fill="#0f4c81" opacity="0.15"/><circle cx="14" cy="40" r="63" fill="none" stroke="#0f4c81" stroke-opacity=".18" stroke-width="3"/><circle cx="156" cy="138" r="116" fill="#1fa7b8" opacity="0.06"/><circle cx="156" cy="138" r="64" fill="none" stroke="#1fa7b8" stroke-opacity=".18" stroke-width="3"/><circle cx="816" cy="596" r="35" fill="#0f4c81" opacity="0.08"/><circle cx="816" cy="596" r="19" fill="none" stroke="#0f4c81" stroke-opacity=".18" stroke-width="3"/><circle cx="884" cy="385" r="94" fill="#0f4c81" opacity="0.08"/><circle cx="884" cy="385" r="52" fill="none" stroke="#0f4c81" stroke-opacity=".18" stroke-width="3"/><circle cx="214" cy="253" r="135" fill="#1fa7b8" opacity="0.08"/><circle cx="214" cy="253" r="74" fill="none" stroke="#1fa7b8" stroke-opacity=".18" stroke-width="3"/><circle cx="130" cy="459" r="40" fill="#0f4c81" opacity="0.08"/><circle cx="130" cy="459" r="22" fill="none" stroke="#0f4c81" stroke-opacity=".18" stroke-width="3"/>
  <g transform="translate(450 300)">
    <path d="M-130 10 0-110 130 10" fill="none" stroke="#0f4c81" stroke-width="10" stroke-linecap="round" stroke-linejoin="round"/>
    <path d="M-95-15v140h190v-140" fill="none" stroke="#0f4c81" stroke-width="10" stroke-linejoin="round"/>
    <g stroke="#1fa7b8" stroke-width="12" stroke-linecap="round"><path d="M0 20v70M-35 55h70"/></g></g>
</svg>
